<?xml version="1.0" encoding="UTF-8"?>
<svg width="10px" height="9px" viewBox="0 0 10 9" version="1.1" xmlns="http://www.w3.org/2000/svg" xmlns:xlink="http://www.w3.org/1999/xlink">
    <title>9176669F-34FE-4E12-A2A3-7AF86137AACA</title>
    <g id="Public-Event-Landing-Page" stroke="none" stroke-width="1" fill="none" fill-rule="evenodd">
        <g id="EventLandingPage.desktop.2a-PREVIEW" transform="translate(-980.000000, -27.000000)" fill="#3E3C3C" fill-rule="nonzero">
            <path d="M989.300391,34.6383929 C989.450131,34.8020842 989.525,34.9955346 989.525,35.21875 C989.525,35.4419654 989.450131,35.6279754 989.300391,35.7767857 C989.15065,35.925596 988.963478,36 988.738867,36 C988.514257,36 988.319597,35.925596 988.154883,35.7767857 L985.2125,32.8526786 L982.270117,35.7767857 C982.105403,35.925596 981.91823,36 981.708594,36 C981.498957,36 981.311785,35.925596 981.14707,35.7767857 C980.982356,35.6279754 980.9,35.4419654 980.9,35.21875 C980.9,34.9955346 980.982356,34.8020842 981.14707,34.6383929 L984.066992,31.7142857 L981.14707,28.7901786 C980.982356,28.6264873 980.9,28.4330368 980.9,28.2098214 C980.9,27.986606 980.982356,27.800596 981.14707,27.6517857 C981.311785,27.5029754 981.498957,27.4285714 981.708594,27.4285714 C981.91823,27.4285714 982.105403,27.5029754 982.270117,27.6517857 L985.2125,30.5758929 L988.154883,27.6517857 C988.319597,27.5029754 988.514257,27.4285714 988.738867,27.4285714 C988.963478,27.4285714 989.15065,27.5029754 989.300391,27.6517857 C989.450131,27.800596 989.525,27.986606 989.525,28.2098214 C989.525,28.4330368 989.450131,28.6264873 989.300391,28.7901786 L986.358008,31.7142857 L989.300391,34.6383929 Z" id="icon-close"></path>
        </g>
    </g>
</svg>